<svg width="32" height="32" viewBox="0 0 32 32" fill="none" xmlns="http://www.w3.org/2000/svg">
<g id="basil:cancel-solid">
<rect width="32" height="32" rx="16" fill="white"/>
<path id="Vector" fill-rule="evenodd" clip-rule="evenodd" d="M9.79282 5.356C13.918 4.89875 18.081 4.89875 22.2062 5.356C24.4902 5.612 26.3328 7.41066 26.6008 9.70266C27.09 13.8862 27.09 18.1125 26.6008 22.296C26.4652 23.4097 25.9574 24.445 25.1597 25.2339C24.3621 26.0229 23.3213 26.5193 22.2062 26.6427C18.0811 27.1013 13.9179 27.1013 9.79282 26.6427C8.67769 26.5193 7.63692 26.0229 6.83925 25.2339C6.04158 24.445 5.53377 23.4097 5.39815 22.296C4.90895 18.1129 4.90895 13.8871 5.39815 9.704C5.53371 8.59049 6.04133 7.55539 6.83873 6.76646C7.63613 5.97752 8.6766 5.48099 9.79149 5.35733L9.79282 5.356ZM11.2928 11.2933C11.4803 11.1061 11.7345 11.0009 11.9995 11.0009C12.2645 11.0009 12.5187 11.1061 12.7062 11.2933L15.9995 14.5867L19.2928 11.2933C19.3844 11.1951 19.4948 11.1163 19.6174 11.0616C19.7401 11.007 19.8725 10.9776 20.0068 10.9752C20.1411 10.9728 20.2744 10.9975 20.399 11.0478C20.5235 11.0981 20.6366 11.173 20.7315 11.2679C20.8265 11.3629 20.9014 11.476 20.9517 11.6005C21.0019 11.7251 21.0266 11.8584 21.0243 11.9927C21.0219 12.127 20.9925 12.2594 20.9379 12.382C20.8832 12.5047 20.8044 12.6151 20.7062 12.7067L17.4128 16L20.7062 19.2933C20.8828 19.4829 20.979 19.7336 20.9744 19.9927C20.9698 20.2518 20.8649 20.4989 20.6816 20.6822C20.4984 20.8654 20.2513 20.9703 19.9922 20.9749C19.7331 20.9795 19.4824 20.8833 19.2928 20.7067L15.9995 17.4133L12.7062 20.7067C12.6146 20.8049 12.5042 20.8837 12.3815 20.9384C12.2589 20.993 12.1265 21.0224 11.9922 21.0248C11.8579 21.0272 11.7245 21.0025 11.6 20.9522C11.4755 20.9019 11.3624 20.827 11.2674 20.732C11.1725 20.6371 11.0976 20.524 11.0473 20.3995C10.997 20.2749 10.9723 20.1416 10.9747 20.0073C10.9771 19.873 11.0065 19.7406 11.0611 19.6179C11.1158 19.4953 11.1946 19.3849 11.2928 19.2933L14.5862 16L11.2928 12.7067C11.1056 12.5192 11.0004 12.265 11.0004 12C11.0004 11.735 11.1056 11.4808 11.2928 11.2933Z" fill="#1A1A1A"/>
</g>
</svg>
