<svg width="24" height="24" viewBox="0 0 24 24" fill="none" xmlns="http://www.w3.org/2000/svg">
<g id="basil:cancel-outline">
<path id="Vector" d="M8.47003 8.46991C8.61066 8.32946 8.80128 8.25057 9.00003 8.25057C9.19878 8.25057 9.38941 8.32946 9.53003 8.46991L12 10.9399L14.47 8.46991C14.5387 8.39622 14.6215 8.33712 14.7135 8.29613C14.8055 8.25514 14.9048 8.23309 15.0055 8.23132C15.1062 8.22954 15.2062 8.24807 15.2996 8.28579C15.393 8.32351 15.4779 8.37965 15.5491 8.45087C15.6203 8.52209 15.6764 8.60692 15.7142 8.70031C15.7519 8.7937 15.7704 8.89373 15.7686 8.99443C15.7668 9.09513 15.7448 9.19445 15.7038 9.28645C15.6628 9.37845 15.6037 9.46125 15.53 9.52991L13.06 11.9999L15.53 14.4699C15.6625 14.6121 15.7346 14.8001 15.7312 14.9944C15.7278 15.1887 15.6491 15.3741 15.5117 15.5115C15.3742 15.6489 15.1889 15.7277 14.9946 15.7311C14.8003 15.7345 14.6122 15.6624 14.47 15.5299L12 13.0599L9.53003 15.5299C9.46137 15.6036 9.37857 15.6627 9.28657 15.7037C9.19457 15.7447 9.09526 15.7667 8.99455 15.7685C8.89385 15.7703 8.79382 15.7518 8.70043 15.714C8.60705 15.6763 8.52221 15.6202 8.45099 15.5489C8.37978 15.4777 8.32363 15.3929 8.28591 15.2995C8.24819 15.2061 8.22966 15.1061 8.23144 15.0054C8.23322 14.9047 8.25526 14.8054 8.29625 14.7134C8.33724 14.6214 8.39635 14.5386 8.47003 14.4699L10.94 11.9999L8.47003 9.52991C8.32958 9.38928 8.25069 9.19866 8.25069 8.99991C8.25069 8.80116 8.32958 8.61054 8.47003 8.46991Z" fill="black"/>
<path id="Vector_2" fill-rule="evenodd" clip-rule="evenodd" d="M7.31696 3.76904C10.4294 3.42399 13.5705 3.42399 16.683 3.76904C18.51 3.97304 19.985 5.41204 20.199 7.24904C20.569 10.406 20.569 13.595 20.199 16.752C19.984 18.589 18.509 20.027 16.683 20.232C13.5705 20.5771 10.4294 20.5771 7.31696 20.232C5.48996 20.027 4.01496 18.589 3.80096 16.752C3.43174 13.5951 3.43174 10.4059 3.80096 7.24904C4.01496 5.41204 5.49096 3.97304 7.31696 3.76904ZM16.517 5.25904C13.5148 4.92627 10.4851 4.92627 7.48296 5.25904C6.92721 5.32069 6.40847 5.56791 6.01054 5.96075C5.61262 6.35359 5.35876 6.86912 5.28996 7.42404C4.93431 10.465 4.93431 13.5371 5.28996 16.578C5.35897 17.1328 5.61292 17.6481 6.01083 18.0407C6.40873 18.4333 6.92736 18.6804 7.48296 18.742C10.46 19.074 13.54 19.074 16.517 18.742C17.0724 18.6802 17.5908 18.433 17.9885 18.0404C18.3862 17.6478 18.64 17.1326 18.709 16.578C19.0646 13.5371 19.0646 10.465 18.709 7.42404C18.6398 6.86963 18.3859 6.35468 17.9882 5.96226C17.5905 5.56983 17.0722 5.32281 16.517 5.26104V5.25904Z" fill="black"/>
</g>
</svg>
