<svg width="54" height="54" viewBox="0 0 54 54" fill="none" xmlns="http://www.w3.org/2000/svg">
<g id="basil:lock-solid">
<path id="Vector" fill-rule="evenodd" clip-rule="evenodd" d="M16.4387 17.4556L17.2104 24.4036L15.6489 24.5273C14.5904 24.612 13.5908 25.049 12.8098 25.7684C12.0288 26.4879 11.5114 27.4483 11.3402 28.4963C10.5266 33.4657 10.5266 38.5344 11.3402 43.5038C11.5109 44.5522 12.0281 45.5132 12.8092 46.233C13.5903 46.9529 14.5901 47.3902 15.6489 47.4751L19.0149 47.745C24.3294 48.168 29.6709 48.168 34.9854 47.745L38.3514 47.4751C39.4099 47.3903 40.4095 46.9534 41.1906 46.2339C41.9716 45.5145 42.489 44.5541 42.6602 43.5061C43.4738 38.5366 43.4738 33.468 42.6602 28.4986C42.489 27.4505 41.9716 26.4901 41.1906 25.7707C40.4095 25.0512 39.4099 24.6143 38.3514 24.5296L36.7899 24.4058L37.5617 17.4578C37.6517 16.639 37.6517 15.8128 37.5617 14.9941L37.5099 14.5328C37.2214 11.9473 35.9899 9.55886 34.051 7.82429C32.112 6.08972 29.6018 5.13074 27.0002 5.13074C24.3986 5.13074 21.8883 6.08972 19.9494 7.82429C18.0105 9.55886 16.779 11.9473 16.4904 14.5328L16.4387 14.9941C16.3478 15.8128 16.3478 16.6391 16.4387 17.4578V17.4556ZM27.8417 8.55005C26.8989 8.43921 25.9436 8.51588 25.0306 8.77566C24.1176 9.03543 23.2649 9.47318 22.5218 10.0637C21.7786 10.6543 21.1595 11.3859 20.7001 12.2166C20.2408 13.0473 19.9502 13.9606 19.8452 14.9041L19.7934 15.3653C19.73 15.9365 19.73 16.5131 19.7934 17.0843L20.5787 24.1471C24.8537 23.8726 29.1444 23.8726 33.4217 24.1471L34.2069 17.0821C34.2702 16.5116 34.2702 15.9358 34.2069 15.3653L34.1552 14.9041C33.9757 13.2871 33.2539 11.7786 32.1074 10.6244C30.961 9.47013 29.4574 8.74043 27.8417 8.55005ZM27.0002 32.6251C26.1051 32.6251 25.2466 32.9806 24.6137 33.6136C23.9808 34.2465 23.6252 35.1049 23.6252 36.0001C23.6252 36.8952 23.9808 37.7536 24.6137 38.3865C25.2466 39.0195 26.1051 39.375 27.0002 39.375C27.8953 39.375 28.7537 39.0195 29.3867 38.3865C30.0196 37.7536 30.3752 36.8952 30.3752 36.0001C30.3752 35.1049 30.0196 34.2465 29.3867 33.6136C28.7537 32.9806 27.8953 32.6251 27.0002 32.6251Z" fill="#01BFBF"/>
</g>
</svg>
