<svg width="40" height="40" viewBox="0 0 40 40" fill="none" xmlns="http://www.w3.org/2000/svg">
<g id="circum:linkedin" filter="url(#filter0_d_270_2461)">
<g clip-path="url(#clip0_270_2461)">
<rect x="4" width="32" height="32" rx="4" fill="#F5F5F5"/>
<path id="Vector" d="M31.5257 0H8.47427C7.28864 0.00330591 6.15251 0.475763 5.31414 1.31414C4.47576 2.15251 4.00331 3.28864 4 4.47427V27.5257C4.00331 28.7114 4.47576 29.8475 5.31414 30.6859C6.15251 31.5242 7.28864 31.9967 8.47427 32H31.5257C32.7124 32 33.8504 31.5286 34.6895 30.6895C35.5286 29.8504 36 28.7124 36 27.5257V4.47427C36 3.28762 35.5286 2.14957 34.6895 1.31048C33.8504 0.471395 32.7124 0 31.5257 0ZM34.2103 27.5257C34.2051 28.2361 33.9206 28.916 33.4183 29.4183C32.916 29.9206 32.2361 30.2051 31.5257 30.2103H8.47427C7.76387 30.2051 7.08404 29.9206 6.58169 29.4183C6.07935 28.916 5.79486 28.2361 5.78971 27.5257V4.47427C5.79486 3.76387 6.07935 3.08404 6.58169 2.58169C7.08404 2.07935 7.76387 1.79486 8.47427 1.78971H31.5257C32.2361 1.79486 32.916 2.07935 33.4183 2.58169C33.9206 3.08404 34.2051 3.76387 34.2103 4.47427V27.5257Z" fill="#1A1A1A"/>
<path id="Vector_2" d="M12.502 14.3306C12.502 13.977 12.6424 13.6379 12.8925 13.3878C13.1425 13.1378 13.4817 12.9973 13.8353 12.9973C14.1889 12.9973 14.528 13.1378 14.7781 13.3878C15.0281 13.6379 15.1686 13.977 15.1686 14.3306V22.9973C15.1686 23.3509 15.0281 23.6901 14.7781 23.9401C14.528 24.1902 14.1889 24.3306 13.8353 24.3306C13.4817 24.3306 13.1425 24.1902 12.8925 23.9401C12.6424 23.6901 12.502 23.3509 12.502 22.9973V14.3306Z" fill="#1A1A1A"/>
<path id="Vector_3" d="M13.8353 10.3254C14.5717 10.3254 15.1686 9.7284 15.1686 8.99202C15.1686 8.25564 14.5717 7.65869 13.8353 7.65869C13.0989 7.65869 12.502 8.25564 12.502 8.99202C12.502 9.7284 13.0989 10.3254 13.8353 10.3254Z" fill="#1A1A1A"/>
<path id="Vector_4" d="M27.4935 17.8266V23C27.4935 23.3536 27.353 23.6927 27.103 23.9428C26.8529 24.1928 26.5138 24.3333 26.1602 24.3333C25.8066 24.3333 25.4674 24.1928 25.2174 23.9428C24.9673 23.6927 24.8268 23.3536 24.8268 23V17.8266C24.8268 17.2555 24.6 16.7078 24.1962 16.304C23.7923 15.9002 23.2446 15.6733 22.6735 15.6733C22.1024 15.6733 21.5547 15.9002 21.1509 16.304C20.7471 16.7078 20.5202 17.2555 20.5202 17.8266V23C20.5202 23.3536 20.3797 23.6927 20.1297 23.9428C19.8796 24.1928 19.5405 24.3333 19.1868 24.3333C18.8332 24.3333 18.4941 24.1928 18.244 23.9428C17.994 23.6927 17.8535 23.3536 17.8535 23V14.3333C17.859 13.9814 18.0013 13.6455 18.2501 13.3966C18.499 13.1477 18.8349 13.0055 19.1868 13C19.4127 12.9938 19.636 13.0488 19.8331 13.1591C20.0303 13.2694 20.194 13.4309 20.3068 13.6266C21.0399 13.2107 21.8694 12.9946 22.7123 13C23.5551 13.0054 24.3818 13.232 25.1095 13.6573C25.8372 14.0826 26.4405 14.6916 26.8589 15.4233C27.2772 16.155 27.4961 16.9838 27.4935 17.8266Z" fill="#1A1A1A"/>
</g>
</g>
<defs>
<filter id="filter0_d_270_2461" x="0" y="0" width="40" height="40" filterUnits="userSpaceOnUse" color-interpolation-filters="sRGB">
<feFlood flood-opacity="0" result="BackgroundImageFix"/>
<feColorMatrix in="SourceAlpha" type="matrix" values="0 0 0 0 0 0 0 0 0 0 0 0 0 0 0 0 0 0 127 0" result="hardAlpha"/>
<feOffset dy="4"/>
<feGaussianBlur stdDeviation="2"/>
<feComposite in2="hardAlpha" operator="out"/>
<feColorMatrix type="matrix" values="0 0 0 0 0 0 0 0 0 0 0 0 0 0 0 0 0 0 0.1 0"/>
<feBlend mode="normal" in2="BackgroundImageFix" result="effect1_dropShadow_270_2461"/>
<feBlend mode="normal" in="SourceGraphic" in2="effect1_dropShadow_270_2461" result="shape"/>
</filter>
<clipPath id="clip0_270_2461">
<rect x="4" width="32" height="32" rx="4" fill="white"/>
</clipPath>
</defs>
</svg>
