<svg width="20" height="20" viewBox="0 0 20 20" fill="none" xmlns="http://www.w3.org/2000/svg">
<g id="clarity:wallet-line" clip-path="url(#clip0_239_893)">
<path id="Vector" d="M17.7781 8.33328H17.2225V4.99995C17.2225 4.8526 17.164 4.7113 17.0598 4.60711C16.9556 4.50292 16.8143 4.44439 16.667 4.44439H3.33365C3.2021 4.44654 3.07406 4.40193 2.97233 4.3185C2.87059 4.23508 2.80176 4.11826 2.7781 3.98883V3.78883C2.80176 3.65941 2.87059 3.54259 2.97233 3.45917C3.07406 3.37574 3.2021 3.33113 3.33365 3.33328H16.4337C16.581 3.33328 16.7223 3.27475 16.8265 3.17056C16.9307 3.06637 16.9892 2.92507 16.9892 2.77772C16.9892 2.63038 16.9307 2.48907 16.8265 2.38489C16.7223 2.2807 16.581 2.22217 16.4337 2.22217H3.33365C2.89163 2.22217 2.4677 2.39776 2.15514 2.71032C1.84258 3.02288 1.66699 3.44681 1.66699 3.88883C1.66309 3.95544 1.66309 4.02223 1.66699 4.08883V15.5166C1.66917 15.8157 1.73025 16.1115 1.84673 16.387C1.96322 16.6625 2.13284 16.9124 2.3459 17.1224C2.55896 17.3323 2.81129 17.4983 3.08849 17.6107C3.36568 17.7232 3.66231 17.7799 3.96143 17.7777H16.667C16.8143 17.7777 16.9556 17.7192 17.0598 17.615C17.164 17.5108 17.2225 17.3695 17.2225 17.2222V13.8888H17.7781C17.9254 13.8888 18.0667 13.8303 18.1709 13.7261C18.2751 13.6219 18.3337 13.4806 18.3337 13.3333V8.88883C18.3337 8.74149 18.2751 8.60018 18.1709 8.496C18.0667 8.39181 17.9254 8.33328 17.7781 8.33328ZM16.1114 16.6666H3.96143C3.65243 16.6696 3.35475 16.5504 3.13315 16.3351C2.91154 16.1197 2.78394 15.8256 2.7781 15.5166V5.48883C2.95843 5.54109 3.14608 5.56361 3.33365 5.5555H16.1114V8.33328H12.2225C11.4858 8.33328 10.7793 8.62594 10.2584 9.14687C9.73742 9.66781 9.44477 10.3743 9.44477 11.1111C9.44477 11.8478 9.73742 12.5543 10.2584 13.0752C10.7793 13.5962 11.4858 13.8888 12.2225 13.8888H16.1114V16.6666ZM17.2225 12.7777H12.2225C11.7805 12.7777 11.3566 12.6021 11.044 12.2896C10.7315 11.977 10.5559 11.5531 10.5559 11.1111C10.5559 10.669 10.7315 10.2451 11.044 9.93255C11.3566 9.61999 11.7805 9.44439 12.2225 9.44439H17.2225V12.7777Z" fill="#1A1A1A"/>
<path id="Vector_2" d="M12.7835 11.9445C13.2438 11.9445 13.6169 11.5714 13.6169 11.1112C13.6169 10.6509 13.2438 10.2778 12.7835 10.2778C12.3233 10.2778 11.9502 10.6509 11.9502 11.1112C11.9502 11.5714 12.3233 11.9445 12.7835 11.9445Z" fill="#1A1A1A"/>
</g>
<defs>
<clipPath id="clip0_239_893">
<rect width="20" height="20" fill="white"/>
</clipPath>
</defs>
</svg>
