<svg width="14" height="24" viewBox="0 0 14 24" fill="none" xmlns="http://www.w3.org/2000/svg">
<g id="evaFacebookFill0">
<g id="evaFacebookFill1">
<path id="evaFacebookFill2" d="M13.875 1.37873C13.875 1.21297 13.8092 1.054 13.6919 0.936787C13.5747 0.819577 13.4158 0.753729 13.25 0.753729H10.125C8.5514 0.675343 7.01075 1.22297 5.83965 2.27695C4.66856 3.33094 3.96223 4.8056 3.875 6.37873V9.75373H0.75C0.58424 9.75373 0.425269 9.81958 0.308058 9.93679C0.190848 10.054 0.125 10.213 0.125 10.3787V13.6287C0.125 13.7945 0.190848 13.9535 0.308058 14.0707C0.425269 14.1879 0.58424 14.2537 0.75 14.2537H3.875V22.6287C3.875 22.7945 3.94085 22.9535 4.05806 23.0707C4.17527 23.1879 4.33424 23.2537 4.5 23.2537H8.25C8.41576 23.2537 8.57473 23.1879 8.69194 23.0707C8.80915 22.9535 8.875 22.7945 8.875 22.6287V14.2537H12.15C12.289 14.2557 12.4247 14.2113 12.5356 14.1276C12.6465 14.0438 12.7264 13.9255 12.7625 13.7912L13.6625 10.5412C13.6874 10.4489 13.6907 10.3521 13.6723 10.2582C13.6538 10.1644 13.6141 10.076 13.5561 9.99994C13.4982 9.92387 13.4235 9.86211 13.338 9.81943C13.2524 9.77674 13.1581 9.75426 13.0625 9.75373H8.875V6.37873C8.90609 6.06932 9.05139 5.78262 9.28253 5.5746C9.51367 5.36657 9.81404 5.25217 10.125 5.25373H13.25C13.4158 5.25373 13.5747 5.18788 13.6919 5.07067C13.8092 4.95346 13.875 4.79449 13.875 4.62873V1.37873Z" fill="#1A1A1A"/>
</g>
</g>
</svg>
