<svg width="24" height="24" viewBox="0 0 24 24" fill="none" xmlns="http://www.w3.org/2000/svg">
<g id="fluent:drafts-24-regular">
<path id="Vector" d="M20.878 2.82602L21.031 2.97002L21.176 3.12302C21.7822 3.80535 22.1048 4.69349 22.0779 5.60581C22.0509 6.51813 21.6764 7.38568 21.031 8.03102L9.063 19.999C8.78587 20.2762 8.44116 20.4761 8.063 20.579L2.948 21.974C2.82049 22.0086 2.6861 22.0089 2.55844 21.9749C2.43078 21.9409 2.31437 21.8737 2.221 21.7802C2.12763 21.6868 2.06061 21.5703 2.02672 21.4426C1.99282 21.3149 1.99327 21.1805 2.028 21.053L3.422 15.937C3.5251 15.5592 3.72502 15.2149 4.002 14.938L15.97 2.97002C16.6155 2.32473 17.4831 1.95043 18.3954 1.92366C19.3077 1.89689 20.1958 2.21969 20.878 2.82602ZM15.001 6.06002L5.063 15.998C4.9708 16.0903 4.90427 16.2051 4.87 16.331L3.82 20.181L7.67 19.131C7.79565 19.0963 7.91007 19.0294 8.002 18.937L17.94 9.00002L15.001 6.06002ZM6.526 11L5.026 12.5H2.75C2.55109 12.5 2.36032 12.421 2.21967 12.2804C2.07902 12.1397 2 11.9489 2 11.75C2 11.5511 2.07902 11.3603 2.21967 11.2197C2.36032 11.079 2.55109 11 2.75 11H6.526ZM10.526 7.00002L9.026 8.50002H2.75C2.55109 8.50002 2.36032 8.42101 2.21967 8.28035C2.07902 8.1397 2 7.94894 2 7.75002C2 7.55111 2.07902 7.36035 2.21967 7.21969C2.36032 7.07904 2.55109 7.00002 2.75 7.00002H10.525H10.526ZM17.031 4.03003L16.061 5.00002L19 7.94002L19.97 6.97002C20.163 6.77705 20.3162 6.54794 20.4207 6.29577C20.5252 6.04361 20.579 5.77334 20.579 5.50038C20.5791 5.22742 20.5254 4.95713 20.421 4.70493C20.3165 4.45273 20.1635 4.22357 19.9705 4.03052C19.7775 3.83748 19.5484 3.68434 19.2962 3.57984C19.0441 3.47534 18.7738 3.42153 18.5009 3.42148C18.2279 3.42144 17.9576 3.47516 17.7054 3.57957C17.4532 3.68398 17.224 3.83705 17.031 4.03003ZM14.526 3.00002L13.026 4.50002H2.75C2.55109 4.50002 2.36032 4.42101 2.21967 4.28035C2.07902 4.1397 2 3.94894 2 3.75002C2 3.55111 2.07902 3.36035 2.21967 3.21969C2.36032 3.07904 2.55109 3.00002 2.75 3.00002H14.525H14.526Z" fill="#1A1A1A"/>
</g>
</svg>
