<svg width="24" height="24" viewBox="0 0 24 24" fill="none" xmlns="http://www.w3.org/2000/svg">
<g id="Frame">
<path id="Vector" d="M7.99943 7C7.99943 6.73478 8.10479 6.48043 8.29232 6.29289C8.47986 6.10536 8.73421 6 8.99943 6H16.9994C17.2646 6 17.519 6.10536 17.7065 6.29289C17.8941 6.48043 17.9994 6.73478 17.9994 7V15C17.9994 15.2652 17.8941 15.5196 17.7065 15.7071C17.519 15.8946 17.2646 16 16.9994 16C16.7342 16 16.4799 15.8946 16.2923 15.7071C16.1048 15.5196 15.9994 15.2652 15.9994 15V9.414L7.70643 17.707C7.51783 17.8892 7.26523 17.99 7.00303 17.9877C6.74083 17.9854 6.49002 17.8802 6.30461 17.6948C6.1192 17.5094 6.01403 17.2586 6.01176 16.9964C6.00948 16.7342 6.11027 16.4816 6.29243 16.293L14.5854 8H8.99943C8.73421 8 8.47986 7.89464 8.29232 7.70711C8.10479 7.51957 7.99943 7.26522 7.99943 7Z" fill="white"/>
</g>
</svg>
