<svg width="24" height="24" viewBox="0 0 24 24" fill="none" xmlns="http://www.w3.org/2000/svg">
<g id="Frame">
<path id="Vector" d="M7.99992 7C7.99992 6.73478 8.10528 6.48043 8.29281 6.29289C8.48035 6.10536 8.7347 6 8.99992 6H16.9999C17.2651 6 17.5195 6.10536 17.707 6.29289C17.8946 6.48043 17.9999 6.73478 17.9999 7V15C17.9999 15.2652 17.8946 15.5196 17.707 15.7071C17.5195 15.8946 17.2651 16 16.9999 16C16.7347 16 16.4803 15.8946 16.2928 15.7071C16.1053 15.5196 15.9999 15.2652 15.9999 15V9.414L7.70692 17.707C7.51832 17.8892 7.26571 17.99 7.00352 17.9877C6.74132 17.9854 6.49051 17.8802 6.3051 17.6948C6.11969 17.5094 6.01452 17.2586 6.01224 16.9964C6.00997 16.7342 6.11076 16.4816 6.29292 16.293L14.5859 8H8.99992C8.7347 8 8.48035 7.89464 8.29281 7.70711C8.10528 7.51957 7.99992 7.26522 7.99992 7Z" fill="#1A1A1A"/>
</g>
</svg>
