<svg width="24" height="25" viewBox="0 0 24 25" fill="none" xmlns="http://www.w3.org/2000/svg">
<g id="Group">
<path id="Vector" fill-rule="evenodd" clip-rule="evenodd" d="M4 5.52853C4 4.73288 4.31607 3.96982 4.87868 3.40721C5.44129 2.8446 6.20435 2.52853 7 2.52853H17C17.7956 2.52853 18.5587 2.8446 19.1213 3.40721C19.6839 3.96982 20 4.73288 20 5.52853V21.5565C20 22.7765 18.62 23.4865 17.628 22.7775L12 18.7575L6.372 22.7775C5.379 23.4875 4 22.7775 4 21.5575V5.52853ZM7 4.52853C6.73478 4.52853 6.48043 4.63389 6.29289 4.82143C6.10536 5.00896 6 5.26332 6 5.52853V20.5855L11.128 16.9225C11.3824 16.7408 11.6873 16.643 12 16.643C12.3127 16.643 12.6176 16.7408 12.872 16.9225L18 20.5855V5.52853C18 5.26332 17.8946 5.00896 17.7071 4.82143C17.5196 4.63389 17.2652 4.52853 17 4.52853H7Z" fill="#1A1A1A"/>
</g>
</svg>
