<svg width="18" height="19" viewBox="0 0 18 19" fill="none" xmlns="http://www.w3.org/2000/svg">
<g id="jam:pen-f">
<path id="Vector" d="M8.55413 12.2989L6.27487 10.0197C6.68213 9.30265 7.27612 8.5924 8.05612 7.89115C9.06187 6.98515 10.8371 5.45365 13.3811 3.29665C13.6389 3.07803 13.9694 2.96434 14.3071 2.97818C14.6448 2.99202 14.9649 3.13237 15.2039 3.37136C15.4429 3.61035 15.5833 3.93048 15.5971 4.26817C15.6109 4.60587 15.4973 4.93641 15.2786 5.19415C13.1186 7.74265 11.5879 9.51791 10.6849 10.5192C9.98362 11.2969 9.27338 11.8902 8.55413 12.2989ZM5.24213 11.1094L7.46587 13.3324L6.44138 14.7619L2.48438 16.1082L3.81263 12.1332L5.24213 11.1094Z" fill="#1A1A1A"/>
</g>
</svg>
