<svg width="24" height="24" viewBox="0 0 24 24" fill="none" xmlns="http://www.w3.org/2000/svg">
<g id="Frame">
<path id="Vector" d="M8.00004 7C8.00004 6.73478 8.1054 6.48043 8.29293 6.29289C8.48047 6.10536 8.73482 6 9.00004 6H17C17.2653 6 17.5196 6.10536 17.7071 6.29289C17.8947 6.48043 18 6.73478 18 7V15C18 15.2652 17.8947 15.5196 17.7071 15.7071C17.5196 15.8946 17.2653 16 17 16C16.7348 16 16.4805 15.8946 16.2929 15.7071C16.1054 15.5196 16 15.2652 16 15V9.414L7.70704 17.707C7.51844 17.8892 7.26584 17.99 7.00364 17.9877C6.74144 17.9854 6.49063 17.8802 6.30522 17.6948C6.11981 17.5094 6.01465 17.2586 6.01237 16.9964C6.01009 16.7342 6.11088 16.4816 6.29304 16.293L14.586 8H9.00004C8.73482 8 8.48047 7.89464 8.29293 7.70711C8.1054 7.51957 8.00004 7.26522 8.00004 7Z" fill="#1A1A1A"/>
</g>
</svg>
