<svg width="20" height="20" viewBox="0 0 20 20" fill="none" xmlns="http://www.w3.org/2000/svg">
<g id="mingcute:certificate-line" clip-path="url(#clip0_368_2209)">
<g id="Group">
<path id="Vector" d="M8.82213 1.75008C9.11712 1.45548 9.51181 1.28213 9.92833 1.26423C10.3449 1.24634 10.753 1.3852 11.0721 1.65342L11.1788 1.75092L12.7621 3.33342H15.0005C15.4208 3.33349 15.8256 3.49239 16.1337 3.77828C16.4419 4.06417 16.6306 4.45593 16.6621 4.87508L16.6671 5.00008V7.23842L18.2505 8.82175C18.5453 9.11678 18.7188 9.51164 18.7367 9.92836C18.7546 10.3451 18.6156 10.7534 18.3471 11.0726L18.2496 11.1784L16.6663 12.7617V15.0001C16.6664 15.4206 16.5076 15.8256 16.2217 16.1339C15.9358 16.4422 15.5439 16.631 15.1246 16.6626L15.0005 16.6667H12.763L11.1796 18.2501C10.8846 18.5449 10.4897 18.7184 10.073 18.7363C9.6563 18.7542 9.24802 18.6152 8.9288 18.3468L8.82296 18.2501L7.23963 16.6667H5.00046C4.57998 16.6669 4.17499 16.5081 3.86667 16.2222C3.55836 15.9363 3.3695 15.5444 3.33796 15.1251L3.3338 15.0001V12.7617L1.75046 11.1784C1.45563 10.8834 1.28213 10.4885 1.26423 10.0718C1.24633 9.65509 1.38534 9.24681 1.6538 8.92758L1.75046 8.82175L3.3338 7.23842V5.00008C3.33387 4.57975 3.49277 4.17496 3.77866 3.86682C4.06455 3.55868 4.45631 3.36994 4.87546 3.33842L5.00046 3.33342H7.2388L8.82213 1.75008ZM10.0005 2.93008L8.41713 4.51342C8.14032 4.78979 7.77512 4.96 7.38546 4.99425L7.2388 5.00008H5.00046V7.23842C5.00056 7.62999 4.86279 8.0091 4.6113 8.30925L4.51213 8.41758L2.9288 10.0009L4.51213 11.5834C4.78881 11.8601 4.95932 12.2253 4.9938 12.6151L5.00046 12.7617V15.0001H7.2388C7.63037 15 8.00949 15.1378 8.30963 15.3892L8.41796 15.4884L10.0005 17.0717L11.5838 15.4884C11.8605 15.2117 12.2257 15.0412 12.6155 15.0067L12.7621 15.0001H15.0005V12.7617C15.0004 12.3702 15.1381 11.9911 15.3896 11.6909L15.4888 11.5826L17.0721 10.0001L15.4888 8.41675C15.2121 8.14006 15.0416 7.77485 15.0071 7.38508L15.0005 7.23842V5.00008H12.7621C12.3706 5.00018 11.9914 4.86241 11.6913 4.61092L11.583 4.51175L9.99963 2.92842L10.0005 2.93008ZM12.5671 7.48675C12.7171 7.33729 12.9183 7.25052 13.1299 7.24406C13.3416 7.2376 13.5477 7.31193 13.7065 7.45196C13.8653 7.59198 13.9649 7.78721 13.985 7.99798C14.005 8.20875 13.9441 8.41926 13.8146 8.58675L13.7446 8.66508L9.67796 12.7317C9.51919 12.8907 9.30756 12.9859 9.08327 12.9991C8.85897 13.0123 8.63764 12.9427 8.4613 12.8034L8.3813 12.7326L6.37796 10.7292C6.22692 10.5796 6.13877 10.3779 6.13156 10.1655C6.12435 9.95298 6.19863 9.74578 6.33919 9.58627C6.47974 9.42675 6.67595 9.327 6.88765 9.30741C7.09935 9.28783 7.31053 9.3499 7.47796 9.48092L7.5563 9.55008L9.02963 11.0234L12.5671 7.48675Z" fill="#1A1A1A"/>
</g>
</g>
<defs>
<clipPath id="clip0_368_2209">
<rect width="20" height="20" fill="white"/>
</clipPath>
</defs>
</svg>
