<svg width="18" height="19" viewBox="0 0 18 19" fill="none" xmlns="http://www.w3.org/2000/svg">
<g id="uis:unlock">
<path id="Vector" d="M12.75 7.25H6.75V5.75C6.75 5.15 6.975 4.625 7.425 4.175C8.325 3.275 9.75 3.275 10.575 4.175C10.875 4.475 11.025 4.85 11.175 5.225C11.25 5.6 11.7 5.825 12.075 5.75C12.45 5.675 12.75 5.225 12.6 4.85C12.45 4.175 12.075 3.575 11.625 3.125C10.95 2.375 9.975 2 9 2C6.9 2 5.25 3.65 5.25 5.75V7.25C3.975 7.25 3 8.225 3 9.5V14.75C3 16.025 3.975 17 5.25 17H12.75C14.025 17 15 16.025 15 14.75V9.5C15 8.225 14.025 7.25 12.75 7.25Z" fill="#2AB807"/>
</g>
</svg>
