<svg width="18" height="19" viewBox="0 0 18 19" fill="none" xmlns="http://www.w3.org/2000/svg">
<g id="basil:lock-solid">
<path id="Vector" fill-rule="evenodd" clip-rule="evenodd" d="M5.47944 6.31848L5.73669 8.63448L5.21619 8.67573C4.86335 8.70396 4.53016 8.84962 4.26981 9.08944C4.00947 9.32925 3.837 9.64939 3.77994 9.99873C3.50874 11.6552 3.50874 13.3448 3.77994 15.0012C3.83684 15.3507 4.00925 15.671 4.26961 15.911C4.52996 16.1509 4.86325 16.2967 5.21619 16.325L6.33819 16.415C8.10969 16.556 9.89019 16.556 11.6617 16.415L12.7837 16.325C13.1365 16.2967 13.4697 16.1511 13.7301 15.9113C13.9904 15.6715 14.1629 15.3513 14.2199 15.002C14.4912 13.3455 14.4912 11.6559 14.2199 9.99948C14.1629 9.65014 13.9904 9.33 13.7301 9.09019C13.4697 8.85037 13.1365 8.70471 12.7837 8.67648L12.2632 8.63523L12.5204 6.31923C12.5504 6.0463 12.5504 5.7709 12.5204 5.49798L12.5032 5.34423C12.407 4.48239 11.9965 3.68625 11.3502 3.10806C10.7039 2.52987 9.86713 2.21021 8.99994 2.21021C8.13275 2.21021 7.29599 2.52987 6.64968 3.10806C6.00337 3.68625 5.59288 4.48239 5.49669 5.34423L5.47944 5.49798C5.44913 5.77089 5.44913 6.04632 5.47944 6.31923V6.31848ZM9.28044 3.34998C8.96619 3.31303 8.64774 3.33859 8.3434 3.42518C8.03907 3.51177 7.75486 3.65769 7.50713 3.85453C7.2594 4.05138 7.05304 4.29527 6.89992 4.57216C6.74681 4.84906 6.64995 5.15351 6.61494 5.46798L6.59769 5.62173C6.57654 5.81214 6.57654 6.00431 6.59769 6.19473L6.85944 8.54898C8.28444 8.45748 9.71469 8.45748 11.1404 8.54898L11.4022 6.19398C11.4233 6.00381 11.4233 5.81189 11.4022 5.62173L11.3849 5.46798C11.3251 4.929 11.0845 4.42616 10.7024 4.04142C10.3202 3.65667 9.819 3.41344 9.28044 3.34998ZM8.99994 11.375C8.70157 11.375 8.41542 11.4935 8.20444 11.7045C7.99347 11.9155 7.87494 12.2016 7.87494 12.5C7.87494 12.7983 7.99347 13.0845 8.20444 13.2955C8.41542 13.5064 8.70157 13.625 8.99994 13.625C9.29831 13.625 9.58446 13.5064 9.79543 13.2955C10.0064 13.0845 10.1249 12.7983 10.1249 12.5C10.1249 12.2016 10.0064 11.9155 9.79543 11.7045C9.58446 11.4935 9.29831 11.375 8.99994 11.375Z" fill="#FA1818"/>
</g>
</svg>
