<svg width="16" height="16" viewBox="0 0 16 16" fill="none" xmlns="http://www.w3.org/2000/svg">
<g id="solar:calendar-outline">
<g id="Group">
<path id="Vector" d="M11.3333 9.33333C11.5101 9.33333 11.6797 9.2631 11.8047 9.13807C11.9298 9.01305 12 8.84348 12 8.66667C12 8.48986 11.9298 8.32029 11.8047 8.19526C11.6797 8.07024 11.5101 8 11.3333 8C11.1565 8 10.987 8.07024 10.8619 8.19526C10.7369 8.32029 10.6667 8.48986 10.6667 8.66667C10.6667 8.84348 10.7369 9.01305 10.8619 9.13807C10.987 9.2631 11.1565 9.33333 11.3333 9.33333ZM11.3333 12C11.5101 12 11.6797 11.9298 11.8047 11.8047C11.9298 11.6797 12 11.5101 12 11.3333C12 11.1565 11.9298 10.987 11.8047 10.8619C11.6797 10.7369 11.5101 10.6667 11.3333 10.6667C11.1565 10.6667 10.987 10.7369 10.8619 10.8619C10.7369 10.987 10.6667 11.1565 10.6667 11.3333C10.6667 11.5101 10.7369 11.6797 10.8619 11.8047C10.987 11.9298 11.1565 12 11.3333 12ZM8.66667 8.66667C8.66667 8.84348 8.59643 9.01305 8.4714 9.13807C8.34638 9.2631 8.17681 9.33333 8 9.33333C7.82319 9.33333 7.65362 9.2631 7.5286 9.13807C7.40357 9.01305 7.33333 8.84348 7.33333 8.66667C7.33333 8.48986 7.40357 8.32029 7.5286 8.19526C7.65362 8.07024 7.82319 8 8 8C8.17681 8 8.34638 8.07024 8.4714 8.19526C8.59643 8.32029 8.66667 8.48986 8.66667 8.66667ZM8.66667 11.3333C8.66667 11.5101 8.59643 11.6797 8.4714 11.8047C8.34638 11.9298 8.17681 12 8 12C7.82319 12 7.65362 11.9298 7.5286 11.8047C7.40357 11.6797 7.33333 11.5101 7.33333 11.3333C7.33333 11.1565 7.40357 10.987 7.5286 10.8619C7.65362 10.7369 7.82319 10.6667 8 10.6667C8.17681 10.6667 8.34638 10.7369 8.4714 10.8619C8.59643 10.987 8.66667 11.1565 8.66667 11.3333ZM4.66667 9.33333C4.84348 9.33333 5.01305 9.2631 5.13807 9.13807C5.2631 9.01305 5.33333 8.84348 5.33333 8.66667C5.33333 8.48986 5.2631 8.32029 5.13807 8.19526C5.01305 8.07024 4.84348 8 4.66667 8C4.48986 8 4.32029 8.07024 4.19526 8.19526C4.07024 8.32029 4 8.48986 4 8.66667C4 8.84348 4.07024 9.01305 4.19526 9.13807C4.32029 9.2631 4.48986 9.33333 4.66667 9.33333ZM4.66667 12C4.84348 12 5.01305 11.9298 5.13807 11.8047C5.2631 11.6797 5.33333 11.5101 5.33333 11.3333C5.33333 11.1565 5.2631 10.987 5.13807 10.8619C5.01305 10.7369 4.84348 10.6667 4.66667 10.6667C4.48986 10.6667 4.32029 10.7369 4.19526 10.8619C4.07024 10.987 4 11.1565 4 11.3333C4 11.5101 4.07024 11.6797 4.19526 11.8047C4.32029 11.9298 4.48986 12 4.66667 12Z" fill="#1A1A1A"/>
<path id="Vector_2" fill-rule="evenodd" clip-rule="evenodd" d="M4.66671 1.16666C4.79932 1.16666 4.92649 1.21933 5.02026 1.3131C5.11403 1.40687 5.16671 1.53405 5.16671 1.66666V2.17532C5.60804 2.16666 6.09404 2.16666 6.62871 2.16666H9.37071C9.90604 2.16666 10.392 2.16666 10.8334 2.17532V1.66666C10.8334 1.53405 10.8861 1.40687 10.9798 1.3131C11.0736 1.21933 11.2008 1.16666 11.3334 1.16666C11.466 1.16666 11.5932 1.21933 11.6869 1.3131C11.7807 1.40687 11.8334 1.53405 11.8334 1.66666V2.21799C12.0067 2.23132 12.1707 2.24799 12.326 2.26866C13.1074 2.37399 13.74 2.59532 14.2394 3.09399C14.738 3.59332 14.9594 4.22599 15.0647 5.00732C15.1667 5.76732 15.1667 6.73732 15.1667 7.96266V9.37066C15.1667 10.596 15.1667 11.5667 15.0647 12.326C14.9594 13.1073 14.738 13.74 14.2394 14.2393C13.74 14.738 13.1074 14.9593 12.326 15.0647C11.566 15.1667 10.596 15.1667 9.37071 15.1667H6.62937C5.40404 15.1667 4.43337 15.1667 3.67404 15.0647C2.89271 14.9593 2.26004 14.738 1.76071 14.2393C1.26204 13.74 1.04071 13.1073 0.935374 12.326C0.833374 11.566 0.833374 10.596 0.833374 9.37066V7.96266C0.833374 6.73732 0.833374 5.76666 0.935374 5.00732C1.04071 4.22599 1.26204 3.59332 1.76071 3.09399C2.26004 2.59532 2.89271 2.37399 3.67404 2.26866C3.82937 2.24799 3.99404 2.23132 4.16671 2.21799V1.66666C4.16671 1.53405 4.21939 1.40687 4.31315 1.3131C4.40692 1.21933 4.5341 1.16666 4.66671 1.16666ZM3.80671 3.25999C3.13671 3.34999 2.75004 3.51932 2.46804 3.80132C2.18604 4.08332 2.01671 4.46999 1.92671 5.14066C1.91137 5.25399 1.89871 5.37399 1.88804 5.49999H14.112C14.1014 5.37332 14.0887 5.25399 14.0734 5.13999C13.9834 4.46999 13.814 4.08332 13.532 3.80132C13.25 3.51932 12.8634 3.34999 12.1927 3.25999C11.508 3.16799 10.6047 3.16666 9.33337 3.16666H6.66671C5.39537 3.16666 4.49271 3.16799 3.80671 3.25999ZM1.83337 7.99999C1.83337 7.43066 1.83337 6.93532 1.84204 6.49999H14.158C14.1667 6.93532 14.1667 7.43066 14.1667 7.99999V9.33332C14.1667 10.6047 14.1654 11.508 14.0734 12.1933C13.9834 12.8633 13.814 13.25 13.532 13.532C13.25 13.814 12.8634 13.9833 12.1927 14.0733C11.508 14.1653 10.6047 14.1667 9.33337 14.1667H6.66671C5.39537 14.1667 4.49271 14.1653 3.80671 14.0733C3.13671 13.9833 2.75004 13.814 2.46804 13.532C2.18604 13.25 2.01671 12.8633 1.92671 12.1927C1.83471 11.508 1.83337 10.6047 1.83337 9.33332V7.99999Z" fill="#1A1A1A"/>
</g>
</g>
</svg>
