<svg width="24" height="18" viewBox="0 0 24 18" fill="none" xmlns="http://www.w3.org/2000/svg">
<path id="Vector" d="M23.0716 2.13513C22.2574 2.49594 21.3827 2.73973 20.4631 2.84992C21.4119 2.28218 22.1218 1.38861 22.4602 0.33596C21.5688 0.865461 20.5931 1.23817 19.5757 1.43789C18.8915 0.707364 17.9853 0.22316 16.9977 0.0604525C16.0101 -0.102255 14.9965 0.0656378 14.1141 0.538065C13.2317 1.01049 12.53 1.76102 12.1178 2.67313C11.7057 3.58523 11.6063 4.60789 11.8349 5.58232C10.0286 5.49162 8.26155 5.02214 6.64843 4.20432C5.03532 3.38651 3.6122 2.23865 2.47141 0.835242C2.08135 1.5081 1.85706 2.28823 1.85706 3.11906C1.85663 3.86701 2.04082 4.60349 2.39328 5.26318C2.74575 5.92286 3.2556 6.48535 3.87759 6.90073C3.15625 6.87778 2.45081 6.68287 1.82001 6.33221V6.39072C1.81994 7.43974 2.1828 8.45648 2.84703 9.26841C3.51126 10.0803 4.43594 10.6375 5.46418 10.8453C4.79501 11.0264 4.09343 11.053 3.41244 10.9233C3.70255 11.8259 4.26765 12.6152 5.02864 13.1807C5.78963 13.7462 6.7084 14.0595 7.65634 14.0769C6.04716 15.3402 4.05984 16.0254 2.01406 16.0224C1.65168 16.0225 1.2896 16.0013 0.929688 15.959C3.00627 17.2941 5.42355 18.0027 7.89232 18C16.2494 18 20.8181 11.0783 20.8181 5.07523C20.8181 4.8802 20.8132 4.68322 20.8044 4.48819C21.6931 3.84553 22.4601 3.04973 23.0697 2.13805L23.0716 2.13513Z" fill="#1A1A1A"/>
</svg>
