<svg width="20" height="20" viewBox="0 0 20 20" fill="none" xmlns="http://www.w3.org/2000/svg">
<g id="uiw:time-o" clip-path="url(#clip0_231_2126)">
<path id="Vector" d="M10 0C15.523 0 20 4.477 20 10C20 15.523 15.523 20 10 20C4.477 20 0 15.523 0 10C0 4.477 4.477 0 10 0ZM10 1.395C7.71781 1.395 5.5291 2.3016 3.91535 3.91535C2.3016 5.5291 1.395 7.71781 1.395 10C1.395 12.2822 2.3016 14.4709 3.91535 16.0847C5.5291 17.6984 7.71781 18.605 10 18.605C12.2822 18.605 14.4709 17.6984 16.0847 16.0847C17.6984 14.4709 18.605 12.2822 18.605 10C18.605 7.71781 17.6984 5.5291 16.0847 3.91535C14.4709 2.3016 12.2822 1.395 10 1.395ZM9.07 5.581C9.455 5.581 9.767 5.894 9.767 6.279V11.163H14.651C14.8314 11.1698 15.0022 11.2463 15.1274 11.3764C15.2526 11.5064 15.3226 11.68 15.3226 11.8605C15.3226 12.041 15.2526 12.2146 15.1274 12.3446C15.0022 12.4747 14.8314 12.5512 14.651 12.558H9.07C8.88488 12.558 8.70734 12.4845 8.57644 12.3536C8.44554 12.2227 8.372 12.0451 8.372 11.86V6.28C8.372 5.894 8.684 5.581 9.07 5.581Z" fill="#1A1A1A"/>
</g>
<defs>
<clipPath id="clip0_231_2126">
<rect width="20" height="20" fill="white"/>
</clipPath>
</defs>
</svg>
